<mxfile host="65bd71144e">
    <diagram id="vg8-pCQorFsbrzL5642W" name="Page-1">
        <mxGraphModel dx="2460" dy="1201" grid="1" gridSize="17" guides="1" tooltips="1" connect="1" arrows="1" fold="1" page="0" pageScale="1" pageWidth="827" pageHeight="1169" background="none" math="0" shadow="0">
            <root>
                <mxCell id="0"/>
                <mxCell id="1" parent="0"/>
                <mxCell id="2" value="Butik" style="whiteSpace=wrap;html=1;align=center;" parent="1" vertex="1">
                    <mxGeometry x="394" y="95" width="100" height="40" as="geometry"/>
                </mxCell>
                <mxCell id="4" value="Anställd" style="whiteSpace=wrap;html=1;align=center;" parent="1" vertex="1">
                    <mxGeometry x="-33" y="85" width="100" height="40" as="geometry"/>
                </mxCell>
                <mxCell id="5" value="Telefon Nummer" style="ellipse;whiteSpace=wrap;html=1;align=center;" parent="1" vertex="1">
                    <mxGeometry x="578" y="15" width="100" height="40" as="geometry"/>
                </mxCell>
                <mxCell id="7" value="Butiks nummer" style="ellipse;whiteSpace=wrap;html=1;align=center;fontStyle=4;" parent="1" vertex="1">
                    <mxGeometry x="544" y="-35" width="100" height="40" as="geometry"/>
                </mxCell>
                <mxCell id="15" value="" style="endArrow=none;html=1;rounded=0;exitX=1;exitY=0.25;exitDx=0;exitDy=0;entryX=0;entryY=1;entryDx=0;entryDy=0;" parent="1" source="2" target="5" edge="1">
                    <mxGeometry relative="1" as="geometry">
                        <mxPoint x="520" y="75" as="sourcePoint"/>
                        <mxPoint x="650" y="95" as="targetPoint"/>
                    </mxGeometry>
                </mxCell>
                <mxCell id="16" value="" style="endArrow=none;html=1;rounded=0;exitX=0.75;exitY=0;exitDx=0;exitDy=0;entryX=0;entryY=1;entryDx=0;entryDy=0;" parent="1" source="2" target="7" edge="1">
                    <mxGeometry relative="1" as="geometry">
                        <mxPoint x="470" y="65" as="sourcePoint"/>
                        <mxPoint x="740" y="125" as="targetPoint"/>
                    </mxGeometry>
                </mxCell>
                <mxCell id="19" value="Adress&lt;br&gt;" style="ellipse;whiteSpace=wrap;html=1;align=center;" parent="1" vertex="1">
                    <mxGeometry x="595" y="65" width="100" height="40" as="geometry"/>
                </mxCell>
                <mxCell id="20" value="" style="endArrow=none;html=1;rounded=0;exitX=1;exitY=0.75;exitDx=0;exitDy=0;entryX=0;entryY=0.5;entryDx=0;entryDy=0;" parent="1" source="2" target="19" edge="1">
                    <mxGeometry relative="1" as="geometry">
                        <mxPoint x="520" y="95" as="sourcePoint"/>
                        <mxPoint x="630" y="85" as="targetPoint"/>
                    </mxGeometry>
                </mxCell>
                <mxCell id="23" value="Namn" style="ellipse;whiteSpace=wrap;html=1;align=center;" parent="1" vertex="1">
                    <mxGeometry x="595" y="119" width="100" height="40" as="geometry"/>
                </mxCell>
                <mxCell id="24" value="Namn" style="ellipse;whiteSpace=wrap;html=1;align=center;" parent="1" vertex="1">
                    <mxGeometry x="-133" y="25" width="100" height="40" as="geometry"/>
                </mxCell>
                <mxCell id="26" value="Lön" style="ellipse;whiteSpace=wrap;html=1;align=center;" parent="1" vertex="1">
                    <mxGeometry x="-153" y="85" width="102" height="40" as="geometry"/>
                </mxCell>
                <mxCell id="27" value="&lt;u&gt;Anställnings Nr&lt;/u&gt;" style="ellipse;whiteSpace=wrap;html=1;align=center;" parent="1" vertex="1">
                    <mxGeometry x="-67" y="-15" width="100" height="40" as="geometry"/>
                </mxCell>
                <mxCell id="28" value="Medlem&lt;br&gt;" style="whiteSpace=wrap;html=1;align=center;" parent="1" vertex="1">
                    <mxGeometry x="-67" y="380" width="100" height="40" as="geometry"/>
                </mxCell>
                <mxCell id="29" value="Namn" style="ellipse;whiteSpace=wrap;html=1;align=center;" parent="1" vertex="1">
                    <mxGeometry x="-167" y="310" width="100" height="40" as="geometry"/>
                </mxCell>
                <mxCell id="30" value="Adress" style="ellipse;whiteSpace=wrap;html=1;align=center;" parent="1" vertex="1">
                    <mxGeometry x="-187" y="360" width="100" height="40" as="geometry"/>
                </mxCell>
                <mxCell id="31" value="Datum, gick med" style="ellipse;whiteSpace=wrap;html=1;align=center;" parent="1" vertex="1">
                    <mxGeometry x="-187" y="410" width="100" height="40" as="geometry"/>
                </mxCell>
                <mxCell id="32" value="&lt;u&gt;Medlems Nummer&lt;/u&gt;" style="ellipse;whiteSpace=wrap;html=1;align=center;" parent="1" vertex="1">
                    <mxGeometry x="-67" y="300" width="100" height="40" as="geometry"/>
                </mxCell>
                <mxCell id="33" value="Film" style="whiteSpace=wrap;html=1;align=center;" parent="1" vertex="1">
                    <mxGeometry x="394" y="390" width="100" height="40" as="geometry"/>
                </mxCell>
                <mxCell id="34" value="Titel" style="ellipse;whiteSpace=wrap;html=1;align=center;" parent="1" vertex="1">
                    <mxGeometry x="663" y="380" width="100" height="40" as="geometry"/>
                </mxCell>
                <mxCell id="35" value="Längd" style="ellipse;whiteSpace=wrap;html=1;align=center;" parent="1" vertex="1">
                    <mxGeometry x="660" y="430" width="100" height="40" as="geometry"/>
                </mxCell>
                <mxCell id="36" value="&lt;u&gt;Film. Nr&lt;/u&gt;" style="ellipse;whiteSpace=wrap;html=1;align=center;" parent="1" vertex="1">
                    <mxGeometry x="612" y="340" width="100" height="40" as="geometry"/>
                </mxCell>
                <mxCell id="37" value="Kategori" style="ellipse;whiteSpace=wrap;html=1;align=center;" parent="1" vertex="1">
                    <mxGeometry x="629" y="480" width="100" height="40" as="geometry"/>
                </mxCell>
                <mxCell id="44" value="" style="endArrow=none;html=1;rounded=0;exitX=1;exitY=1;exitDx=0;exitDy=0;entryX=0;entryY=0.5;entryDx=0;entryDy=0;" edge="1" parent="1" source="2" target="23">
                    <mxGeometry relative="1" as="geometry">
                        <mxPoint x="374" y="374" as="sourcePoint"/>
                        <mxPoint x="534" y="374" as="targetPoint"/>
                    </mxGeometry>
                </mxCell>
                <mxCell id="45" value="Har" style="shape=rhombus;perimeter=rhombusPerimeter;whiteSpace=wrap;html=1;align=center;" vertex="1" parent="1">
                    <mxGeometry x="384" y="230" width="120" height="60" as="geometry"/>
                </mxCell>
                <mxCell id="46" value="Status" style="ellipse;whiteSpace=wrap;html=1;align=center;dashed=1;" vertex="1" parent="1">
                    <mxGeometry x="612" y="179" width="100" height="40" as="geometry"/>
                </mxCell>
                <mxCell id="47" value="Antal" style="ellipse;whiteSpace=wrap;html=1;align=center;" vertex="1" parent="1">
                    <mxGeometry x="660" y="219" width="100" height="40" as="geometry"/>
                </mxCell>
                <mxCell id="48" value="" style="endArrow=none;html=1;rounded=0;exitX=1;exitY=0.5;exitDx=0;exitDy=0;entryX=0;entryY=0.5;entryDx=0;entryDy=0;" edge="1" parent="1" source="45" target="47">
                    <mxGeometry relative="1" as="geometry">
                        <mxPoint x="374" y="374" as="sourcePoint"/>
                        <mxPoint x="534" y="374" as="targetPoint"/>
                    </mxGeometry>
                </mxCell>
                <mxCell id="49" value="" style="endArrow=none;html=1;rounded=0;exitX=1;exitY=0;exitDx=0;exitDy=0;entryX=0;entryY=0.5;entryDx=0;entryDy=0;" edge="1" parent="1" source="45" target="46">
                    <mxGeometry relative="1" as="geometry">
                        <mxPoint x="374" y="374" as="sourcePoint"/>
                        <mxPoint x="534" y="374" as="targetPoint"/>
                    </mxGeometry>
                </mxCell>
                <mxCell id="50" value="Resarverar" style="shape=rhombus;perimeter=rhombusPerimeter;whiteSpace=wrap;html=1;align=center;" vertex="1" parent="1">
                    <mxGeometry x="170" y="310" width="120" height="60" as="geometry"/>
                </mxCell>
                <mxCell id="51" value="Senast vill ha Daturm" style="ellipse;whiteSpace=wrap;html=1;align=center;" vertex="1" parent="1">
                    <mxGeometry x="180" y="250" width="100" height="40" as="geometry"/>
                </mxCell>
                <mxCell id="52" value="" style="endArrow=none;html=1;rounded=0;exitX=0.5;exitY=0;exitDx=0;exitDy=0;entryX=0.5;entryY=1;entryDx=0;entryDy=0;" edge="1" parent="1" source="50" target="51">
                    <mxGeometry relative="1" as="geometry">
                        <mxPoint x="374" y="374" as="sourcePoint"/>
                        <mxPoint x="534" y="374" as="targetPoint"/>
                    </mxGeometry>
                </mxCell>
                <mxCell id="56" value="" style="endArrow=none;html=1;rounded=0;entryX=0;entryY=0.5;entryDx=0;entryDy=0;exitX=1;exitY=0;exitDx=0;exitDy=0;" edge="1" parent="1" source="28" target="50">
                    <mxGeometry relative="1" as="geometry">
                        <mxPoint x="34" y="374" as="sourcePoint"/>
                        <mxPoint x="170" y="408" as="targetPoint"/>
                    </mxGeometry>
                </mxCell>
                <mxCell id="57" value="N" style="resizable=0;html=1;align=right;verticalAlign=bottom;" connectable="0" vertex="1" parent="56">
                    <mxGeometry x="1" relative="1" as="geometry">
                        <mxPoint x="-51" y="10" as="offset"/>
                    </mxGeometry>
                </mxCell>
                <mxCell id="58" value="" style="endArrow=none;html=1;rounded=0;exitX=1;exitY=0.5;exitDx=0;exitDy=0;entryX=0;entryY=0;entryDx=0;entryDy=0;" edge="1" parent="1" source="50" target="33">
                    <mxGeometry relative="1" as="geometry">
                        <mxPoint x="374" y="374" as="sourcePoint"/>
                        <mxPoint x="340" y="410" as="targetPoint"/>
                    </mxGeometry>
                </mxCell>
                <mxCell id="59" value="M" style="resizable=0;html=1;align=right;verticalAlign=bottom;" connectable="0" vertex="1" parent="58">
                    <mxGeometry x="1" relative="1" as="geometry">
                        <mxPoint x="-54" y="-30" as="offset"/>
                    </mxGeometry>
                </mxCell>
                <mxCell id="60" value="Vad" style="shape=rhombus;perimeter=rhombusPerimeter;whiteSpace=wrap;html=1;align=center;" vertex="1" parent="1">
                    <mxGeometry x="274" y="470" width="120" height="60" as="geometry"/>
                </mxCell>
                <mxCell id="62" value="Vem" style="shape=rhombus;perimeter=rhombusPerimeter;whiteSpace=wrap;html=1;align=center;" vertex="1" parent="1">
                    <mxGeometry x="33" y="470" width="120" height="60" as="geometry"/>
                </mxCell>
                <mxCell id="63" value="Uthyrning" style="shape=ext;margin=3;double=1;whiteSpace=wrap;html=1;align=center;" vertex="1" parent="1">
                    <mxGeometry x="153" y="543.5" width="117" height="73" as="geometry"/>
                </mxCell>
                <mxCell id="64" value="" style="endArrow=none;html=1;rounded=0;exitX=0.5;exitY=0;exitDx=0;exitDy=0;" edge="1" parent="1" source="82">
                    <mxGeometry relative="1" as="geometry">
                        <mxPoint x="-83" y="697" as="sourcePoint"/>
                        <mxPoint x="153" y="612" as="targetPoint"/>
                    </mxGeometry>
                </mxCell>
                <mxCell id="65" value="" style="endArrow=none;html=1;rounded=0;entryX=0.5;entryY=0;entryDx=0;entryDy=0;exitX=0.5;exitY=1;exitDx=0;exitDy=0;" edge="1" parent="1" source="63" target="83">
                    <mxGeometry relative="1" as="geometry">
                        <mxPoint x="-83" y="646" as="sourcePoint"/>
                        <mxPoint x="77" y="646" as="targetPoint"/>
                    </mxGeometry>
                </mxCell>
                <mxCell id="66" value="" style="endArrow=none;html=1;rounded=0;exitX=1;exitY=0.5;exitDx=0;exitDy=0;entryX=0.5;entryY=1;entryDx=0;entryDy=0;" edge="1" parent="1" source="63" target="60">
                    <mxGeometry relative="1" as="geometry">
                        <mxPoint x="204" y="527" as="sourcePoint"/>
                        <mxPoint x="364" y="527" as="targetPoint"/>
                    </mxGeometry>
                </mxCell>
                <mxCell id="67" value="N" style="resizable=0;html=1;align=right;verticalAlign=bottom;" connectable="0" vertex="1" parent="66">
                    <mxGeometry x="1" relative="1" as="geometry">
                        <mxPoint x="-44" y="30" as="offset"/>
                    </mxGeometry>
                </mxCell>
                <mxCell id="71" value="" style="endArrow=none;html=1;rounded=0;exitX=0.5;exitY=1;exitDx=0;exitDy=0;entryX=0;entryY=0.5;entryDx=0;entryDy=0;" edge="1" parent="1" source="62" target="63">
                    <mxGeometry relative="1" as="geometry">
                        <mxPoint x="102" y="527" as="sourcePoint"/>
                        <mxPoint x="211" y="527" as="targetPoint"/>
                    </mxGeometry>
                </mxCell>
                <mxCell id="72" value="N" style="resizable=0;html=1;align=right;verticalAlign=bottom;" connectable="0" vertex="1" parent="71">
                    <mxGeometry x="1" relative="1" as="geometry">
                        <mxPoint x="-17" y="-20" as="offset"/>
                    </mxGeometry>
                </mxCell>
                <mxCell id="73" value="" style="endArrow=none;html=1;rounded=0;entryX=0;entryY=0.5;entryDx=0;entryDy=0;exitX=0.5;exitY=1;exitDx=0;exitDy=0;" edge="1" parent="1" source="28" target="62">
                    <mxGeometry relative="1" as="geometry">
                        <mxPoint x="-34" y="459" as="sourcePoint"/>
                        <mxPoint x="126" y="459" as="targetPoint"/>
                    </mxGeometry>
                </mxCell>
                <mxCell id="74" value="1" style="resizable=0;html=1;align=right;verticalAlign=bottom;" connectable="0" vertex="1" parent="73">
                    <mxGeometry x="1" relative="1" as="geometry">
                        <mxPoint y="-24" as="offset"/>
                    </mxGeometry>
                </mxCell>
                <mxCell id="75" value="" style="endArrow=none;html=1;rounded=0;entryX=0.5;entryY=1;entryDx=0;entryDy=0;exitX=1;exitY=0.5;exitDx=0;exitDy=0;" edge="1" parent="1" source="60" target="33">
                    <mxGeometry relative="1" as="geometry">
                        <mxPoint x="408" y="493" as="sourcePoint"/>
                        <mxPoint x="466" y="459" as="targetPoint"/>
                    </mxGeometry>
                </mxCell>
                <mxCell id="76" value="1" style="resizable=0;html=1;align=right;verticalAlign=bottom;" connectable="0" vertex="1" parent="75">
                    <mxGeometry x="1" relative="1" as="geometry">
                        <mxPoint x="-33" y="40" as="offset"/>
                    </mxGeometry>
                </mxCell>
                <mxCell id="77" value="" style="endArrow=none;html=1;rounded=0;exitX=0.5;exitY=1;exitDx=0;exitDy=0;entryX=0.5;entryY=0;entryDx=0;entryDy=0;" edge="1" parent="1" source="45" target="33">
                    <mxGeometry relative="1" as="geometry">
                        <mxPoint x="391" y="340" as="sourcePoint"/>
                        <mxPoint x="551" y="340" as="targetPoint"/>
                    </mxGeometry>
                </mxCell>
                <mxCell id="78" value="N" style="resizable=0;html=1;align=right;verticalAlign=bottom;" connectable="0" vertex="1" parent="77">
                    <mxGeometry x="1" relative="1" as="geometry">
                        <mxPoint x="16" y="-50" as="offset"/>
                    </mxGeometry>
                </mxCell>
                <mxCell id="79" value="" style="endArrow=none;html=1;rounded=0;exitX=0.5;exitY=1;exitDx=0;exitDy=0;entryX=0.5;entryY=0;entryDx=0;entryDy=0;" edge="1" parent="1" source="2" target="45">
                    <mxGeometry relative="1" as="geometry">
                        <mxPoint x="357" y="187" as="sourcePoint"/>
                        <mxPoint x="444" y="221" as="targetPoint"/>
                    </mxGeometry>
                </mxCell>
                <mxCell id="80" value="M" style="resizable=0;html=1;align=right;verticalAlign=bottom;" connectable="0" vertex="1" parent="79">
                    <mxGeometry x="1" relative="1" as="geometry">
                        <mxPoint x="16" y="-30" as="offset"/>
                    </mxGeometry>
                </mxCell>
                <mxCell id="82" value="&lt;span style=&quot;border-bottom: 1px dotted&quot;&gt;Uthyrnings Nummer&lt;/span&gt;" style="ellipse;whiteSpace=wrap;html=1;align=center;" vertex="1" parent="1">
                    <mxGeometry x="67" y="680" width="100" height="40" as="geometry"/>
                </mxCell>
                <mxCell id="83" value="Pris" style="ellipse;whiteSpace=wrap;html=1;align=center;" vertex="1" parent="1">
                    <mxGeometry x="136" y="720" width="100" height="40" as="geometry"/>
                </mxCell>
                <mxCell id="84" value="Hyr Datum" style="ellipse;whiteSpace=wrap;html=1;align=center;" vertex="1" parent="1">
                    <mxGeometry x="236" y="714" width="100" height="40" as="geometry"/>
                </mxCell>
                <mxCell id="85" value="Återlämnings Datum" style="ellipse;whiteSpace=wrap;html=1;align=center;" vertex="1" parent="1">
                    <mxGeometry x="306" y="680" width="100" height="40" as="geometry"/>
                </mxCell>
                <mxCell id="86" value="" style="endArrow=none;html=1;rounded=0;entryX=0.75;entryY=1;entryDx=0;entryDy=0;exitX=0.5;exitY=0;exitDx=0;exitDy=0;" edge="1" parent="1" source="84" target="63">
                    <mxGeometry relative="1" as="geometry">
                        <mxPoint x="167" y="700" as="sourcePoint"/>
                        <mxPoint x="327" y="700" as="targetPoint"/>
                    </mxGeometry>
                </mxCell>
                <mxCell id="87" value="" style="endArrow=none;html=1;rounded=0;exitX=1;exitY=1;exitDx=0;exitDy=0;entryX=0;entryY=0;entryDx=0;entryDy=0;" edge="1" parent="1" source="63" target="85">
                    <mxGeometry relative="1" as="geometry">
                        <mxPoint x="221" y="663" as="sourcePoint"/>
                        <mxPoint x="381" y="663" as="targetPoint"/>
                    </mxGeometry>
                </mxCell>
                <mxCell id="88" value="" style="endArrow=none;html=1;rounded=0;exitX=1;exitY=0.5;exitDx=0;exitDy=0;entryX=0;entryY=1;entryDx=0;entryDy=0;" edge="1" parent="1" source="31" target="28">
                    <mxGeometry relative="1" as="geometry">
                        <mxPoint x="-255" y="493" as="sourcePoint"/>
                        <mxPoint x="-68" y="408" as="targetPoint"/>
                    </mxGeometry>
                </mxCell>
                <mxCell id="89" value="" style="endArrow=none;html=1;rounded=0;exitX=1;exitY=0.5;exitDx=0;exitDy=0;entryX=0;entryY=0.25;entryDx=0;entryDy=0;" edge="1" parent="1" source="30" target="28">
                    <mxGeometry relative="1" as="geometry">
                        <mxPoint x="-255" y="561" as="sourcePoint"/>
                        <mxPoint x="-95" y="561" as="targetPoint"/>
                    </mxGeometry>
                </mxCell>
                <mxCell id="90" value="" style="endArrow=none;html=1;rounded=0;exitX=0.5;exitY=1;exitDx=0;exitDy=0;" edge="1" parent="1" source="32" target="28">
                    <mxGeometry relative="1" as="geometry">
                        <mxPoint x="-272" y="612" as="sourcePoint"/>
                        <mxPoint x="-17" y="374" as="targetPoint"/>
                    </mxGeometry>
                </mxCell>
                <mxCell id="91" value="" style="endArrow=none;html=1;rounded=0;exitX=1;exitY=1;exitDx=0;exitDy=0;entryX=0.25;entryY=0;entryDx=0;entryDy=0;" edge="1" parent="1" source="29" target="28">
                    <mxGeometry relative="1" as="geometry">
                        <mxPoint x="-204" y="646" as="sourcePoint"/>
                        <mxPoint x="-44" y="646" as="targetPoint"/>
                    </mxGeometry>
                </mxCell>
                <mxCell id="92" value="" style="endArrow=none;html=1;rounded=0;exitX=1;exitY=0;exitDx=0;exitDy=0;entryX=0;entryY=0.5;entryDx=0;entryDy=0;" edge="1" parent="1" source="33" target="36">
                    <mxGeometry relative="1" as="geometry">
                        <mxPoint x="510" y="391" as="sourcePoint"/>
                        <mxPoint x="670" y="391" as="targetPoint"/>
                    </mxGeometry>
                </mxCell>
                <mxCell id="93" value="" style="endArrow=none;html=1;rounded=0;exitX=1;exitY=0.5;exitDx=0;exitDy=0;entryX=0;entryY=0.5;entryDx=0;entryDy=0;" edge="1" parent="1" source="33" target="34">
                    <mxGeometry relative="1" as="geometry">
                        <mxPoint x="833" y="357" as="sourcePoint"/>
                        <mxPoint x="993" y="357" as="targetPoint"/>
                    </mxGeometry>
                </mxCell>
                <mxCell id="94" value="" style="endArrow=none;html=1;rounded=0;exitX=1;exitY=0.75;exitDx=0;exitDy=0;entryX=0;entryY=0.5;entryDx=0;entryDy=0;" edge="1" parent="1" source="33" target="35">
                    <mxGeometry relative="1" as="geometry">
                        <mxPoint x="850" y="459" as="sourcePoint"/>
                        <mxPoint x="1010" y="459" as="targetPoint"/>
                    </mxGeometry>
                </mxCell>
                <mxCell id="95" value="" style="endArrow=none;html=1;rounded=0;exitX=1;exitY=1;exitDx=0;exitDy=0;entryX=0;entryY=0.5;entryDx=0;entryDy=0;" edge="1" parent="1" source="33" target="37">
                    <mxGeometry relative="1" as="geometry">
                        <mxPoint x="833" y="544" as="sourcePoint"/>
                        <mxPoint x="993" y="544" as="targetPoint"/>
                    </mxGeometry>
                </mxCell>
                <mxCell id="96" value="Regissör" style="ellipse;shape=doubleEllipse;margin=3;whiteSpace=wrap;html=1;align=center;" vertex="1" parent="1">
                    <mxGeometry x="563" y="520" width="100" height="40" as="geometry"/>
                </mxCell>
                <mxCell id="97" value="Aktörer" style="ellipse;shape=doubleEllipse;margin=3;whiteSpace=wrap;html=1;align=center;" vertex="1" parent="1">
                    <mxGeometry x="463" y="544" width="100" height="40" as="geometry"/>
                </mxCell>
                <mxCell id="98" value="" style="endArrow=none;html=1;rounded=0;exitX=1;exitY=1;exitDx=0;exitDy=0;entryX=0;entryY=0;entryDx=0;entryDy=0;" edge="1" parent="1" source="33" target="96">
                    <mxGeometry relative="1" as="geometry">
                        <mxPoint x="493" y="476" as="sourcePoint"/>
                        <mxPoint x="653" y="476" as="targetPoint"/>
                    </mxGeometry>
                </mxCell>
                <mxCell id="99" value="" style="endArrow=none;html=1;rounded=0;exitX=0.5;exitY=0;exitDx=0;exitDy=0;entryX=0.75;entryY=1;entryDx=0;entryDy=0;" edge="1" parent="1" source="97" target="33">
                    <mxGeometry relative="1" as="geometry">
                        <mxPoint x="408" y="493" as="sourcePoint"/>
                        <mxPoint x="568" y="493" as="targetPoint"/>
                    </mxGeometry>
                </mxCell>
                <mxCell id="100" value="Arbetar" style="shape=rhombus;perimeter=rhombusPerimeter;whiteSpace=wrap;html=1;align=center;" vertex="1" parent="1">
                    <mxGeometry x="167" y="15" width="120" height="60" as="geometry"/>
                </mxCell>
                <mxCell id="101" value="Medlem I" style="shape=rhombus;perimeter=rhombusPerimeter;whiteSpace=wrap;html=1;align=center;" vertex="1" parent="1">
                    <mxGeometry x="170" y="159" width="120" height="60" as="geometry"/>
                </mxCell>
                <mxCell id="102" value="" style="endArrow=none;html=1;rounded=0;exitX=0.75;exitY=0;exitDx=0;exitDy=0;entryX=0;entryY=1;entryDx=0;entryDy=0;" edge="1" parent="1" source="28" target="101">
                    <mxGeometry relative="1" as="geometry">
                        <mxPoint x="34" y="255" as="sourcePoint"/>
                        <mxPoint x="194" y="255" as="targetPoint"/>
                    </mxGeometry>
                </mxCell>
                <mxCell id="103" value="N" style="resizable=0;html=1;align=right;verticalAlign=bottom;" connectable="0" vertex="1" parent="102">
                    <mxGeometry x="1" relative="1" as="geometry">
                        <mxPoint x="-64" y="56" as="offset"/>
                    </mxGeometry>
                </mxCell>
                <mxCell id="104" value="" style="endArrow=none;html=1;rounded=0;exitX=1;exitY=0;exitDx=0;exitDy=0;entryX=0;entryY=0.5;entryDx=0;entryDy=0;" edge="1" parent="1" source="101" target="2">
                    <mxGeometry relative="1" as="geometry">
                        <mxPoint x="255" y="136" as="sourcePoint"/>
                        <mxPoint x="415" y="136" as="targetPoint"/>
                    </mxGeometry>
                </mxCell>
                <mxCell id="105" value="1" style="resizable=0;html=1;align=right;verticalAlign=bottom;" connectable="0" vertex="1" parent="104">
                    <mxGeometry x="1" relative="1" as="geometry">
                        <mxPoint x="-60" y="24" as="offset"/>
                    </mxGeometry>
                </mxCell>
                <mxCell id="106" value="" style="endArrow=none;html=1;rounded=0;entryX=1;entryY=1;entryDx=0;entryDy=0;exitX=0;exitY=0;exitDx=0;exitDy=0;" edge="1" parent="1" source="4" target="24">
                    <mxGeometry relative="1" as="geometry">
                        <mxPoint x="-51" y="119" as="sourcePoint"/>
                        <mxPoint x="109" y="119" as="targetPoint"/>
                    </mxGeometry>
                </mxCell>
                <mxCell id="107" value="" style="endArrow=none;html=1;rounded=0;entryX=0;entryY=0.5;entryDx=0;entryDy=0;exitX=1;exitY=0.5;exitDx=0;exitDy=0;" edge="1" parent="1" source="26" target="4">
                    <mxGeometry relative="1" as="geometry">
                        <mxPoint x="-306" y="255" as="sourcePoint"/>
                        <mxPoint x="-146" y="255" as="targetPoint"/>
                        <Array as="points">
                            <mxPoint x="-33" y="119"/>
                        </Array>
                    </mxGeometry>
                </mxCell>
                <mxCell id="108" value="" style="endArrow=none;html=1;rounded=0;exitX=0.5;exitY=1;exitDx=0;exitDy=0;entryX=0.25;entryY=0;entryDx=0;entryDy=0;" edge="1" parent="1" source="27" target="4">
                    <mxGeometry relative="1" as="geometry">
                        <mxPoint x="-34" y="51" as="sourcePoint"/>
                        <mxPoint x="126" y="51" as="targetPoint"/>
                    </mxGeometry>
                </mxCell>
                <mxCell id="110" value="" style="endArrow=none;html=1;rounded=0;exitX=1;exitY=0;exitDx=0;exitDy=0;entryX=0;entryY=0.5;entryDx=0;entryDy=0;" edge="1" parent="1" source="4" target="100">
                    <mxGeometry relative="1" as="geometry">
                        <mxPoint x="68" y="102" as="sourcePoint"/>
                        <mxPoint x="228" y="102" as="targetPoint"/>
                    </mxGeometry>
                </mxCell>
                <mxCell id="111" value="N" style="resizable=0;html=1;align=right;verticalAlign=bottom;" connectable="0" vertex="1" parent="110">
                    <mxGeometry x="1" relative="1" as="geometry">
                        <mxPoint x="-31" y="10" as="offset"/>
                    </mxGeometry>
                </mxCell>
                <mxCell id="112" value="" style="endArrow=none;html=1;rounded=0;exitX=1;exitY=0.5;exitDx=0;exitDy=0;entryX=0;entryY=0.25;entryDx=0;entryDy=0;" edge="1" parent="1" source="100" target="2">
                    <mxGeometry relative="1" as="geometry">
                        <mxPoint x="323" y="68" as="sourcePoint"/>
                        <mxPoint x="483" y="68" as="targetPoint"/>
                    </mxGeometry>
                </mxCell>
                <mxCell id="113" value="1" style="resizable=0;html=1;align=right;verticalAlign=bottom;" connectable="0" vertex="1" parent="112">
                    <mxGeometry x="1" relative="1" as="geometry">
                        <mxPoint x="-58" y="-40" as="offset"/>
                    </mxGeometry>
                </mxCell>
                <mxCell id="114" value="Chef" style="shape=rhombus;perimeter=rhombusPerimeter;whiteSpace=wrap;html=1;align=center;" vertex="1" parent="1">
                    <mxGeometry x="-43" y="153" width="120" height="60" as="geometry"/>
                </mxCell>
                <mxCell id="115" value="" style="shape=link;html=1;rounded=0;entryX=0.25;entryY=1;entryDx=0;entryDy=0;exitX=0;exitY=0.5;exitDx=0;exitDy=0;" edge="1" parent="1" source="114" target="4">
                    <mxGeometry relative="1" as="geometry">
                        <mxPoint x="-51" y="187" as="sourcePoint"/>
                        <mxPoint x="-34" y="119" as="targetPoint"/>
                    </mxGeometry>
                </mxCell>
                <mxCell id="116" value="1" style="resizable=0;html=1;align=right;verticalAlign=bottom;" connectable="0" vertex="1" parent="115">
                    <mxGeometry x="1" relative="1" as="geometry">
                        <mxPoint x="-25" y="34" as="offset"/>
                    </mxGeometry>
                </mxCell>
                <mxCell id="117" value="" style="endArrow=none;html=1;rounded=0;exitX=0.75;exitY=1;exitDx=0;exitDy=0;entryX=1;entryY=0.5;entryDx=0;entryDy=0;" edge="1" parent="1" source="4" target="114">
                    <mxGeometry relative="1" as="geometry">
                        <mxPoint x="51" y="153" as="sourcePoint"/>
                        <mxPoint x="211" y="153" as="targetPoint"/>
                    </mxGeometry>
                </mxCell>
                <mxCell id="118" value="N" style="resizable=0;html=1;align=right;verticalAlign=bottom;" connectable="0" vertex="1" parent="117">
                    <mxGeometry x="1" relative="1" as="geometry">
                        <mxPoint y="-24" as="offset"/>
                    </mxGeometry>
                </mxCell>
                <mxCell id="119" value="Gata" style="ellipse;whiteSpace=wrap;html=1;align=center;" vertex="1" parent="1">
                    <mxGeometry x="799" y="25" width="100" height="40" as="geometry"/>
                </mxCell>
                <mxCell id="120" value="Stad" style="ellipse;whiteSpace=wrap;html=1;align=center;" vertex="1" parent="1">
                    <mxGeometry x="816" y="65" width="100" height="40" as="geometry"/>
                </mxCell>
                <mxCell id="121" value="Hus nummer" style="ellipse;whiteSpace=wrap;html=1;align=center;" vertex="1" parent="1">
                    <mxGeometry x="816" y="105" width="100" height="40" as="geometry"/>
                </mxCell>
                <mxCell id="122" value="Post nummer" style="ellipse;whiteSpace=wrap;html=1;align=center;" vertex="1" parent="1">
                    <mxGeometry x="799" y="145" width="100" height="40" as="geometry"/>
                </mxCell>
                <mxCell id="123" value="" style="endArrow=none;html=1;rounded=0;exitX=0.942;exitY=0.756;exitDx=0;exitDy=0;exitPerimeter=0;entryX=0;entryY=0.5;entryDx=0;entryDy=0;" edge="1" parent="1" source="19" target="121">
                    <mxGeometry relative="1" as="geometry">
                        <mxPoint x="731" y="187" as="sourcePoint"/>
                        <mxPoint x="891" y="187" as="targetPoint"/>
                    </mxGeometry>
                </mxCell>
                <mxCell id="124" value="" style="endArrow=none;html=1;rounded=0;exitX=1;exitY=0.5;exitDx=0;exitDy=0;entryX=0;entryY=0.5;entryDx=0;entryDy=0;" edge="1" parent="1" source="19" target="120">
                    <mxGeometry relative="1" as="geometry">
                        <mxPoint x="731" y="204" as="sourcePoint"/>
                        <mxPoint x="891" y="204" as="targetPoint"/>
                    </mxGeometry>
                </mxCell>
                <mxCell id="125" value="" style="endArrow=none;html=1;rounded=0;exitX=1;exitY=0;exitDx=0;exitDy=0;entryX=0;entryY=0.5;entryDx=0;entryDy=0;" edge="1" parent="1" source="19" target="119">
                    <mxGeometry relative="1" as="geometry">
                        <mxPoint x="731" y="221" as="sourcePoint"/>
                        <mxPoint x="891" y="221" as="targetPoint"/>
                    </mxGeometry>
                </mxCell>
                <mxCell id="126" value="" style="endArrow=none;html=1;rounded=0;exitX=1;exitY=1;exitDx=0;exitDy=0;entryX=0;entryY=0.5;entryDx=0;entryDy=0;" edge="1" parent="1" source="19" target="122">
                    <mxGeometry relative="1" as="geometry">
                        <mxPoint x="731" y="238" as="sourcePoint"/>
                        <mxPoint x="891" y="238" as="targetPoint"/>
                    </mxGeometry>
                </mxCell>
                <mxCell id="135" value="Hyll nummer" style="ellipse;whiteSpace=wrap;html=1;align=center;" vertex="1" parent="1">
                    <mxGeometry x="644" y="270" width="100" height="40" as="geometry"/>
                </mxCell>
                <mxCell id="136" value="" style="endArrow=none;html=1;rounded=0;exitX=1;exitY=1;exitDx=0;exitDy=0;entryX=0;entryY=0.5;entryDx=0;entryDy=0;" edge="1" parent="1" source="45" target="135">
                    <mxGeometry relative="1" as="geometry">
                        <mxPoint x="510" y="272" as="sourcePoint"/>
                        <mxPoint x="670" y="272" as="targetPoint"/>
                    </mxGeometry>
                </mxCell>
            </root>
        </mxGraphModel>
    </diagram>
</mxfile>